<svg width="56" height="57" viewBox="0 0 56 57" fill="none" xmlns="http://www.w3.org/2000/svg">
<rect width="56" height="57" fill="#1E1E1E"/>
<path d="M-2651 -2742.5C-2651 -2743.6 -2650.1 -2744.5 -2649 -2744.5H3489C3490.1 -2744.5 3491 -2743.6 3491 -2742.5V9638.38C3491 9639.48 3490.1 9640.38 3489 9640.38H-2649C-2650.1 9640.38 -2651 9639.48 -2651 9638.38V-2742.5Z" fill="#444444"/>
<path d="M-2649 -2743.5H3489V-2745.5H-2649V-2743.5ZM3490 -2742.5V9638.38H3492V-2742.5H3490ZM3489 9639.38H-2649V9641.38H3489V9639.38ZM-2650 9638.38V-2742.5H-2652V9638.38H-2650ZM-2649 9639.38C-2649.55 9639.38 -2650 9638.93 -2650 9638.38H-2652C-2652 9640.04 -2650.66 9641.38 -2649 9641.38V9639.38ZM3490 9638.38C3490 9638.93 3489.55 9639.38 3489 9639.38V9641.38C3490.66 9641.38 3492 9640.04 3492 9638.38H3490ZM3489 -2743.5C3489.55 -2743.5 3490 -2743.05 3490 -2742.5H3492C3492 -2744.16 3490.66 -2745.5 3489 -2745.5V-2743.5ZM-2649 -2745.5C-2650.66 -2745.5 -2652 -2744.16 -2652 -2742.5H-2650C-2650 -2743.05 -2649.55 -2743.5 -2649 -2743.5V-2745.5Z" fill="white" fill-opacity="0.1"/>
<rect width="1440" height="4828.19" transform="translate(-531 -2644.5)" fill="white"/>
<rect width="1440" height="4828.19" transform="translate(-531 -2644.5)" fill="white"/>
<rect x="-456" y="-33.6599" width="1290" height="195.39" rx="12" fill="#222222"/>
<g clip-path="url(#clip0_0_1)">
<g clip-path="url(#clip1_0_1)">
<g clip-path="url(#clip2_0_1)">
<path d="M55.05 24.8402C54.95 23.9402 54.15 23.3402 53.25 23.4402C52.35 23.5402 51.75 24.3402 51.85 25.2402C53.35 38.5402 43.65 50.5402 30.35 52.0402C29.45 52.1402 28.55 52.1402 27.65 52.1402C20.15 52.1402 13.05 48.7402 8.35002 42.8402H11.55C12.35 42.7402 12.95 42.0402 12.95 41.1402C12.95 40.3402 12.35 39.6402 11.55 39.5402H4.75002C4.35002 39.5402 3.85002 39.6402 3.55002 39.9402C3.25002 40.3402 3.05002 40.7402 3.05002 41.2402V48.5402C3.05002 48.5402 3.05002 49.7402 4.65002 49.7402C5.35002 49.9402 6.05002 49.3402 6.25002 48.6402V45.2402C13.55 54.1402 25.55 57.5402 36.55 53.9402C48.75 49.8402 56.45 37.7402 55.05 24.8402ZM0.450024 30.8402C0.550024 31.7402 1.35002 32.3402 2.25002 32.2402C3.15002 32.1402 3.75002 31.3402 3.65002 30.4402C2.15002 17.1402 11.75 5.14019 25.05 3.74019C25.95 3.64019 26.85 3.64019 27.75 3.64019C35.25 3.64019 42.35 7.04019 47.05 12.9402H43.85C43.05 13.0402 42.45 13.7402 42.45 14.6402C42.45 15.4402 43.05 16.1402 43.85 16.2402H50.75C51.15 16.2402 51.65 16.1402 51.95 15.8402C52.25 15.4402 52.45 15.0402 52.45 14.5402V7.04019C52.45 7.04019 52.45 5.84019 50.85 5.84019C50.15 5.74019 49.45 6.34019 49.25 7.04019V10.4402C41.95 1.64019 29.95 -1.85981 19.05 1.74019C6.75002 5.84019 -0.949975 17.9402 0.450024 30.8402ZM25.55 27.8402L29.35 30.6402C29.55 30.8402 29.65 31.1402 29.45 31.4402C29.35 31.5402 29.15 31.6402 29.05 31.6402H27.85C27.55 31.6402 27.25 31.4402 27.25 31.0402C27.25 30.1402 26.55 29.4402 25.65 29.4402C24.75 29.4402 24.05 30.1402 24.05 31.0402C24.05 32.7402 25.15 34.2402 26.85 34.6402V34.7402C26.85 35.6402 27.55 36.3402 28.45 36.3402C29.35 36.3402 30.05 35.6402 30.05 34.7402V34.6402C31.65 34.1402 32.85 32.6402 32.85 30.9402C32.85 29.7402 32.25 28.6402 31.35 27.9402L27.55 25.1402C27.35 24.9402 27.25 24.6402 27.45 24.3402C27.55 24.2402 27.75 24.1402 27.85 24.1402H29.05C29.35 24.1402 29.65 24.3402 29.65 24.7402C29.65 25.6402 30.35 26.3402 31.25 26.3402C32.15 26.3402 32.85 25.6402 32.85 24.7402C32.85 23.0402 31.75 21.5402 30.05 21.1402V21.0402C30.05 20.1402 29.35 19.4402 28.45 19.4402C27.55 19.4402 26.85 20.1402 26.85 21.0402V21.1402C24.85 21.7402 23.65 23.7402 24.25 25.7402C24.45 26.6402 24.85 27.3402 25.55 27.8402ZM28.45 41.6402C35.95 41.6402 42.05 35.5402 42.05 28.0402C42.05 20.5402 35.95 14.4402 28.45 14.4402C20.95 14.4402 14.85 20.5402 14.85 28.0402C14.85 35.5402 20.95 41.5402 28.45 41.6402ZM28.45 17.6402C34.15 17.6402 38.85 22.3402 38.85 28.0402C38.85 33.7402 34.15 38.3402 28.45 38.3402C22.75 38.3402 18.05 33.6402 18.05 27.9402C18.05 22.2402 22.65 17.6402 28.45 17.6402Z" fill="white"/>
</g>
</g>
</g>
<defs>
<clipPath id="clip0_0_1">
<rect width="55" height="56" fill="white" transform="translate(0.25 0.340088)"/>
</clipPath>
<clipPath id="clip1_0_1">
<rect width="55" height="56" fill="white" transform="translate(0.25 0.340088)"/>
</clipPath>
<clipPath id="clip2_0_1">
<rect width="55" height="56" fill="white" transform="translate(0.25 0.340088)"/>
</clipPath>
</defs>
</svg>
